<?xml version="1.0" encoding="UTF-8"?><svg id="logo" xmlns="http://www.w3.org/2000/svg" viewBox="0 0 819.914 154.773" fill="#FFFFFF"><path id="eye" d="M819.317,74.713c-51.379-106.183-186.339-91.944-227.123-.787-1.207,2.796-1.048,5.362.354,8.252,20.472,43.6,64.875,73.112,113.18,72.571,48.562.752,93.805-29.957,113.563-73.884.816-1.789.837-4.395.027-6.152h0ZM633.007,83.716c.698,11.861,4.117,22.84,9.794,33.707-14.055-9.965-26.457-24.365-34.005-39.614,7.815-15.937,20.098-29.679,34.322-40.111-7.585,13.813-11.688,30.212-10.11,46.018ZM746.438,109.255c-9.485,8.577-21.777,13.366-34.506,14.393l-.106,17.265c-13.999-7.006-26.956-19.495-30.786-34.827,4.608-15.098,16.202-27.238,30.766-33.475l.165,15.859c14.492-5.956,26.312-18.613,30.799-33.654-4.18-15.188-16.845-27.662-30.772-34.555l-.131,16.959c-14.809,1.263-30.032,7.559-39.624,18.69,0,.007-.007.007-.007.007-1.044,1.19-2.024,2.411-2.951,3.686,0,0,0,.007-.006.007-2.021,2.783-3.76,5.792-5.184,8.917-8.505,18.422-5.304,40.854,5.334,58.151-.003.002.001,0-.002.002-9.885-8.061-16.9-19.457-20.232-31.713-11.592-41.145,25.164-85.44,67.762-80.838,45.673,5.255,64.063,65.453,29.479,95.126h.001ZM802.666,77.769c-9.544,17.554-22.579,33.518-39.769,44.135v-.006s.007,0,.007-.007c20.44-23.213,19.436-57.212,6-83.431h.006c14.087,9.674,25.787,24.486,33.756,39.309Z"/><path id="l" d="M525.728.011v137.108h83.04v17.654h-102.002V.011h18.962Z"/><path id="i" d="M450.168,154.773V.011h18.962v154.762h-18.962Z"/><path id="c" d="M421.345,132.422c-15,15-33.641,22.285-55.712,22.285-25.07,0-44.355-7.285-57.854-22.07-13.499-14.785-20.357-32.999-20.357-54.426-.214-13.714,2.572-26.356,8.143-37.927,5.57-11.571,14.356-20.999,26.57-28.713,11.999-7.714,26.57-11.571,43.497-11.571,21.214,0,39.427,7.5,54.855,22.499l-12.856,11.999c-11.356-11.142-25.284-16.714-41.998-16.714-19.284,0-34.069,6-44.355,17.571-10.285,11.785-15.428,25.927-15.214,42.641.214,16.714,5.357,30.641,15.643,41.998,10.071,11.356,24.642,16.927,43.926,16.927,16.714,0,31.071-5.786,42.641-17.356l13.071,12.856Z"/><path id="e" d="M155.164,154.773V.011h107.233v17.687h-88.489v48.418h84.784v17.908h-84.784v52.398h91.976v18.35h-110.72Z"/><path id="r" d="M103.528,154.773l-47.514-55.714H18.962v55.714H0V.011h69.309C85.438.011,98.079,4.875,107.233,14.603c9.154,9.728,13.731,21.446,13.731,34.932,0,12.823-3.487,23.656-10.68,32.721-7.41,9.065-18.308,14.15-33.128,15.255l50.347,57.262h-23.975ZM68.437,81.814c10.898,0,19.18-2.874,24.847-8.843,5.667-5.969,8.718-13.707,8.718-22.993,0-8.401-2.833-16.139-8.5-22.772-5.885-6.633-13.949-9.949-24.193-9.949H18.962v64.558h49.475Z"/></svg>
