<svg width="70" height="54" viewBox="0 0 70 54" fill="none" xmlns="http://www.w3.org/2000/svg">
<path d="M10.3027 25.1636C11.2075 24.9877 12.1904 24.977 12.9941 25.5084C13.5337 25.8651 13.6818 26.2205 13.9756 26.774C14.6797 26.6176 15.1674 26.5061 15.8857 26.7398C16.9898 27.099 17.6131 28.1406 17.7402 29.2418C18.7977 29.3571 19.8702 29.1496 20.6494 30.1519C21.5627 31.3268 21.4884 32.8742 21.3974 34.2691C21.3239 34.8352 21.5642 35.8152 21.4804 36.3316C21.2629 37.6692 21.5159 38.9623 21.4472 40.2447C21.369 41.705 21.5746 43.4789 21.415 44.8726C21.146 47.2217 21.2202 48.579 19.3349 50.1636C19.2761 51.0148 19.1783 51.4181 19.2324 52.2935C18.8634 52.2917 17.8664 52.3251 17.5625 52.2115C17.5337 52.15 17.479 49.3676 17.457 48.9869C18.0337 48.5578 18.7867 48.2719 19.082 47.5806C19.885 45.7001 19.5028 43.7396 19.5498 41.7701C19.6285 39.3126 19.6679 36.8959 19.5312 34.4341C19.4999 33.8666 19.7644 31.815 19.4463 31.3716C18.9547 30.687 17.7067 31.0519 17.7715 31.9976C17.668 33.3405 17.807 34.6697 17.7998 35.9918C17.7914 37.5261 17.8361 38.9633 17.8994 40.4937C17.2116 40.3294 16.8168 40.3962 16.1924 40.3043C16.1908 39.5387 16.1015 38.8357 16.0771 38.0835C16.0554 37.4127 16.1567 36.6967 16.1582 36.0152C16.1541 34.2463 16.1008 32.4775 15.998 30.7115C15.9589 29.9168 16.3835 28.2039 15.1279 28.2359C14.8643 28.2444 14.6147 28.3576 14.4345 28.5503C13.5208 29.5183 14.7378 36.2646 14.165 37.6919C13.8709 37.8338 13.0503 37.7717 12.6679 37.7779C12.6583 35.3177 12.6279 32.8576 12.5761 30.398C12.5598 29.637 12.7006 27.8539 12.3027 27.1998C12.2063 27.0412 11.787 26.9064 11.5791 26.9058C11.3302 26.9045 11.0909 27.0031 10.915 27.1793C10.3981 27.7045 10.5036 30.0951 10.5263 30.8638C10.5488 31.6228 10.7773 38.3197 10.4717 38.6285C10.2638 38.8355 9.9062 38.8521 9.62986 38.8433C9.40202 38.8361 9.17335 38.8145 8.94626 38.7945C8.78357 37.428 9.34054 30.3353 8.65134 29.7662C8.36028 29.526 7.83061 29.4912 7.46775 29.4625C6.78798 30.4433 7.06727 31.1321 7.00974 32.2623C6.89838 34.4484 7.06292 36.6178 7.00974 38.8062C6.98122 39.9805 7.37983 43.1481 5.18357 41.5982C4.7616 40.7583 3.432 38.1963 2.77634 38.1021C0.273062 37.9017 2.49466 40.3197 2.89939 41.105C4.35468 43.9298 6.30502 46.5101 7.81638 49.2837C8.05208 49.7168 7.92737 52.8631 7.9824 53.65C7.43394 53.6109 6.85251 53.5599 6.30564 53.5543C6.30824 52.82 6.25659 52.5559 6.20505 51.8687C6.25078 51.5935 6.20681 50.8324 6.23826 50.4263C6.38607 50.075 6.15502 49.4973 5.86716 49.2544C5.7193 48.9829 5.63078 48.8143 5.44431 48.5699C5.16347 47.9126 3.43853 45.2983 2.97654 44.5699L2.63767 44.2037C1.7328 42.0008 -0.69282 40.2309 0.190404 37.6568C0.544143 36.6263 2.2806 35.9119 3.27048 36.3599C4.17894 36.7712 4.79994 37.6502 5.30857 38.4742C5.35744 36.4311 5.26096 34.4072 5.31736 32.3648C5.35447 31.0153 5.08507 29.4206 6.13181 28.3609C6.82266 27.6731 7.97329 27.6725 8.85056 27.9166C9.05714 26.1822 9.30936 26.3143 10.3027 25.1636Z" fill="currentColor"/>
<path d="M55.8926 26.8169C56.8872 24.9273 57.7422 24.7507 59.7998 25.4009C60.6572 26.4399 60.835 26.5682 61.0009 27.898C62.0203 27.67 63.0952 27.7937 63.8506 28.5748C64.776 29.5321 64.5515 31.3367 64.542 32.566L64.5488 33.3921C64.5394 34.3004 64.5413 35.0669 64.5791 35.9722L64.5234 36.4673C64.5207 37.1396 64.5422 37.8318 64.5547 38.5054C64.9056 37.9714 65.44 37.0905 65.9746 36.732C66.257 36.5426 66.9519 36.4149 67.1933 36.147C67.4709 36.2 68.2646 36.3542 68.5039 36.4507C69.1929 36.991 69.7067 37.2308 69.8291 38.1421C70.1496 40.5285 68.5149 41.5435 67.6816 43.4849C67.6085 43.5926 67.4945 43.7476 67.4316 43.855C67.0062 44.4538 64.656 47.9716 64.5576 48.4546L64.2636 48.8423C63.8021 49.3634 63.4304 50.5101 63.6816 51.1617L63.7051 51.7886C63.6567 52.4002 63.6375 52.783 63.6572 53.3941C62.9525 53.5655 62.6414 53.519 61.917 53.4849C62.0939 52.4578 61.8851 49.7947 62.1426 49.1978C62.6444 48.0342 64.1629 45.9509 64.8457 44.7681C65.6972 43.2712 66.6388 41.8382 67.4502 40.3199C67.8439 39.6744 68.8188 38.9448 68.2344 38.1168C67.919 37.6707 67.1218 37.6825 66.791 38.0738C65.9012 39.1307 65.4804 40.6096 64.5459 41.6099C64.1432 42.0408 63.2249 41.8834 63.1103 41.3853C62.9282 40.5929 62.9746 39.3183 62.9804 38.5171L62.9961 33.0005C62.9968 32.0858 63.0244 31.126 62.9726 30.2144C62.9529 29.9592 62.8612 29.6203 62.6963 29.4234C62.4202 29.0946 61.7005 29.1556 61.4023 29.4361C61.1967 29.6296 61.0705 29.9272 61.0449 30.2066C60.9198 31.5713 60.9772 32.9628 60.9922 34.3326C61.0025 35.283 60.9746 36.2029 60.9873 37.15C60.9927 37.5487 61.1045 37.9797 61.0888 38.3492C60.788 38.6001 59.7955 38.5271 59.3584 38.523C59.1536 34.9311 59.6316 31.1506 59.3994 27.5406C59.3122 26.1858 57.6023 26.187 57.459 27.5796C57.3881 28.268 57.4078 28.9264 57.3994 29.6158L57.3896 33.8834C57.398 35.059 57.297 36.2887 57.2734 37.483C56.671 37.4459 56.2784 37.425 55.6797 37.4605C55.6502 37.0972 55.6685 36.7521 55.6816 36.3873C55.7727 33.8616 55.5875 31.351 55.6758 28.8257C55.7053 27.9809 54.1191 27.8273 54.0215 28.7945C53.958 29.4231 53.9999 30.0319 53.9638 30.6617C53.8554 32.3138 53.8071 33.9699 53.8193 35.6255C53.8188 37.3756 53.8835 38.4818 53.7461 40.2535C53.3097 40.2242 52.5711 40.3072 52.1113 40.3462C52.4115 37.7106 51.8254 34.5913 52.1552 31.8921C52.2844 30.8352 50.2397 29.9169 50.2597 32.1558C50.2885 35.3168 50.1821 38.5021 50.2617 41.6675C50.3701 43.8762 49.5926 47.8635 52.3642 48.731C52.5612 48.7928 52.4253 51.8275 52.4189 52.1959C51.8711 52.1974 51.3151 52.1861 50.7666 52.1802C50.715 51.3051 50.8798 50.7484 50.6064 49.9029C48.802 48.6075 48.7681 47.1461 48.5761 45.064C48.4838 44.0626 48.616 43.0157 48.5927 42.0074C48.5115 38.4833 48.5929 34.9553 48.582 31.4312C48.648 31.0293 48.9847 30.5122 49.2246 30.2164C50.116 29.1165 51.0289 29.39 52.1562 29.3043L52.2392 29.1646C52.1893 28.9746 52.1463 28.8233 52.2138 28.6324C52.8358 26.8743 54.117 26.1917 55.8926 26.8169Z" fill="currentColor"/>
<path d="M32.8711 0.00151713C33.217 -0.00859604 33.5629 0.031933 33.8974 0.120658C35.5921 0.558945 35.718 1.50026 36.3642 2.59527C38.5266 1.91251 40.5487 2.3269 41.3115 4.75835C41.519 5.41983 41.4283 5.79001 41.3418 6.46441C43.1433 5.85896 44.8953 5.80147 46.166 7.59038C46.3543 7.85555 46.5137 9.10611 46.5312 9.45269C46.5784 10.3881 46.5661 11.3543 46.5713 12.2945L46.5634 18.3619V25.0464C46.5443 28.1266 46.741 32.2493 43.665 34.0718C43.643 34.8586 43.5977 36.8493 43.6543 37.4996C43.0645 37.4627 42.6379 37.4504 42.0478 37.4654C42.0378 36.5817 41.9 35.7135 41.9394 34.8257C41.9688 34.1654 41.8745 33.5103 41.7832 32.858C43.696 32.4304 44.388 31.3108 44.7304 29.4615C45.234 26.7419 44.9715 23.8721 45 21.1109C45.0426 16.9901 45.0367 12.857 44.9853 8.73589C44.8927 8.58799 44.7492 8.38778 44.6377 8.25738C44.3488 7.91749 43.936 7.70736 43.4912 7.67339C42.788 7.62111 41.7821 8.07067 41.7187 8.85699C41.6117 9.74754 41.8027 10.7313 41.7353 11.6207C41.5101 14.5897 41.9437 17.7048 41.7363 20.6431C41.3365 20.6986 40.2232 20.9234 40.1631 20.3804C40.0693 19.5326 40.1052 18.69 40.0927 17.8394L40.0576 12.4664C40.0546 11.5734 40.0419 10.652 40.0058 9.76031C39.9748 8.99331 39.8514 8.12963 39.8291 7.37652C39.8317 6.49924 40.2428 5.67107 39.7666 4.84429C39.2349 3.9214 38.1914 3.63256 37.2744 4.17339C36.8605 4.4175 36.6681 5.14467 36.6172 5.58648C36.4683 6.87893 36.5777 8.21798 36.6074 9.51617C36.5798 11.3638 36.765 13.0535 36.6435 14.8941C36.5984 15.5783 36.6932 16.2026 36.5283 16.8951L36.5195 16.9293C36.1309 16.9036 35.337 16.9622 35.0879 16.7134C34.9955 15.832 35.0414 14.8512 35.0107 13.9576C34.9675 12.7002 34.8462 11.4273 34.9121 10.1714C35.0304 9.22106 34.8865 8.18196 34.9482 7.25054C35.0346 5.94843 34.6807 4.22008 34.8554 2.99077C34.4851 2.23149 34.2084 2.00213 33.4697 1.65288C33.1649 1.69159 32.957 1.68891 32.6484 1.68706C31.5976 2.22179 31.5429 2.74525 31.5049 3.83941C31.4807 5.18185 31.6054 6.31393 31.6123 7.57769L31.581 18.3013C31.0599 18.2881 30.5384 18.2913 30.0176 18.3111C29.9307 15.9828 29.9014 13.6621 29.9306 11.3238C29.9449 10.1794 29.7235 8.87172 29.8613 7.69683C30.0388 6.18513 29.099 5.10114 27.5342 5.50835C25.8785 6.04199 26.5482 9.48068 26.4951 10.7964C26.3647 14.0152 26.525 17.1671 26.4912 20.3746C26.4756 21.8457 26.2227 22.8926 24.5908 22.0513C24.0727 20.9376 21.752 16.5598 20.3301 16.8492C17.3419 17.4589 19.7445 20.4633 20.6006 21.8199L25.5517 29.7242C26.125 30.644 27.1184 32.0304 27.5146 33.0005C27.9038 33.954 27.6449 35.3399 27.6152 36.3111C27.5901 37.132 27.6054 38.0202 27.6084 38.857C27.173 38.869 26.4672 38.8178 26.0127 38.7994C25.9414 37.9756 25.9162 37.0673 25.8945 36.2271C25.8731 35.3979 26.093 34.2055 25.8965 33.399C25.8055 33.0263 25.1268 32.3404 24.8828 31.9214C23.3193 29.2638 21.7073 26.6342 20.0488 24.0347C19.2042 22.6957 18.1323 21.1682 17.4521 19.8023C16.27 17.4281 18.1543 15.1362 20.6777 15.3365C23.0673 15.5264 23.4114 17.6449 24.6963 19.0689C24.7289 17.5194 24.5359 16.4308 24.5058 15.0103C24.6163 13.8896 24.6249 12.9491 24.6562 11.8169C24.7058 10.0164 24.2369 7.92757 24.6006 6.19292C24.7767 5.35275 25.7378 4.34842 26.4511 3.97808C27.6792 3.3407 28.4703 3.69836 29.664 4.08453L29.6582 4.03863C29.3526 1.58749 30.4636 0.293474 32.8711 0.00151713Z" fill="currentColor"/>
</svg>
