<svg width="64" height="64" viewBox="0 0 64 64" fill="none" xmlns="http://www.w3.org/2000/svg">
<path fill-rule="evenodd" clip-rule="evenodd" d="M39.5918 47.507C41.36 47.5844 42.943 47.4087 42.624 49.6818C41.5004 51.0222 40.3756 52.5561 39.3125 53.9504C37.7929 55.9514 36.2483 57.9336 34.6787 59.8957C33.9639 60.7891 33.1701 61.8629 32.3984 62.7072C32.2128 62.9101 31.6581 63.0206 31.3662 63.0939C31.2218 63.0514 30.8678 62.9453 30.7705 62.8488C29.6198 61.7079 28.6813 60.2404 27.5918 58.9914C27.4264 58.6453 26.4853 57.4836 26.2178 57.1447L22.8193 52.8498C22.1739 52.0448 20.5213 50.2206 20.3174 49.1662C20.2469 48.3405 20.8062 47.6809 21.5996 47.6554C25.0694 47.5438 28.5614 47.5905 32.0381 47.55C34.6248 47.5199 36.9633 47.6797 39.5918 47.507ZM24.708 50.4289C24.7807 50.7588 30.8864 58.5537 31.5449 59.3088C32.4335 57.9724 33.7115 56.5571 34.6777 55.2336C35.9055 53.6548 37.1232 51.9974 38.4043 50.4748C37.4109 50.4283 36.686 50.4859 35.7266 50.4816L29.5645 50.4426C27.9562 50.4458 26.3259 50.5034 24.708 50.4289Z" fill="currentColor"/>
<path fill-rule="evenodd" clip-rule="evenodd" d="M48.6846 20.3488C49.1267 20.3178 49.5716 20.3871 49.9395 20.675C54.2254 24.0338 58.698 27.2141 62.8066 30.7844C63.4405 31.3352 62.9079 32.2282 62.4219 32.6418C61.7107 33.2469 60.9638 33.8365 60.2344 34.4142C58.9363 35.4558 57.6279 36.485 56.3105 37.5021C54.9429 38.4954 53.6215 39.6437 52.2344 40.6242C51.1634 41.3811 50.2496 42.4883 48.9365 42.7746C48.4447 42.6343 47.7317 42.3787 47.6738 41.757C47.456 39.4075 47.602 37.0113 47.5957 34.6398L47.5947 26.4328C47.5894 25.0888 47.4659 23.8212 47.584 22.4748C47.6653 21.5469 47.5029 21.5266 47.9863 20.6965C48.2662 20.5073 48.3654 20.4704 48.6846 20.3488ZM50.5117 35.2746C50.5115 36.3327 50.4275 37.3476 50.4434 38.4338C51.9707 37.1454 53.7985 35.8015 55.3857 34.5422C55.9618 34.1035 58.9163 31.8766 59.1367 31.5295C58.9759 31.2531 50.7112 24.8078 50.4365 24.7219L50.5117 35.2746Z" fill="currentColor"/>
<path fill-rule="evenodd" clip-rule="evenodd" d="M13.0625 20.5597C13.9675 19.9737 15.3326 20.5011 15.4033 21.6252C15.6387 23.2426 15.4485 24.7851 15.4385 26.4162L15.4375 34.2668C15.4244 36.1981 15.4901 38.0954 15.502 40.0656C15.5124 41.8028 15.0053 43.6254 12.8691 42.2736C11.8046 41.5999 10.7674 40.6734 9.76953 39.881L5.20117 36.2804C3.72975 35.1293 2.25651 33.9778 0.776367 32.8381C0.0555723 32.2831 0.0735068 32.3142 0 31.4338C0.126422 30.7818 0.162511 30.6934 0.6875 30.2951C3.27742 28.1907 6.00249 26.1621 8.61133 24.0773C10.0805 22.9032 11.4892 21.5792 13.0625 20.5597ZM12.4326 24.7531C10.5796 26.222 8.71362 27.6749 6.83398 29.1096C6.00546 29.7513 4.4981 30.9865 3.66504 31.5275C5.12588 32.5553 6.49701 33.7722 7.88867 34.7756L10.8174 37.0441C11.3414 37.4482 12.0989 38.062 12.6494 38.4045C12.5501 37.3973 12.5018 36.3525 12.4932 35.34C12.4837 34.2221 12.5886 33.0996 12.5918 31.9777C12.5958 30.5807 12.5014 29.1837 12.5068 27.7912C12.5083 27.3966 12.6958 24.8985 12.4824 24.7726C12.4672 24.764 12.449 24.7595 12.4326 24.7531Z" fill="currentColor"/>
<path fill-rule="evenodd" clip-rule="evenodd" d="M30.5107 22.466C35.519 21.9167 40.0246 25.5319 40.5732 30.5402C41.1217 35.5486 37.5055 40.054 32.4971 40.6017C27.4897 41.1492 22.9859 37.5338 22.4375 32.5265C21.8893 27.5194 25.5036 23.0152 30.5107 22.466ZM37.7109 30.9494C37.3916 27.5198 34.3538 24.9968 30.9238 25.3117C27.4877 25.6274 24.9594 28.6709 25.2793 32.1066C25.5993 35.5426 28.6465 38.0669 32.082 37.7424C35.5111 37.4185 38.0301 34.3788 37.7109 30.9494Z" fill="currentColor"/>
<path fill-rule="evenodd" clip-rule="evenodd" d="M30.8984 0.0783012C31.2575 0.00399826 31.5142 -0.0545447 31.8672 0.083184C32.0311 0.139457 32.3958 0.254075 32.5303 0.330254C32.6985 0.720727 33.9854 2.28274 34.3311 2.71795L38.5176 7.95818C39.2061 8.82778 39.7664 9.82987 40.5439 10.7648C41.1992 11.6896 42.1532 12.5735 42.6436 13.5949C42.9183 14.1678 42.4118 15.2755 41.7607 15.3429C39.2392 15.6033 36.6067 15.4328 34.0596 15.4377L26.4736 15.4416C25.3485 15.4456 24.2237 15.5527 23.0986 15.464C21.5987 15.3458 20.784 15.8179 20.2529 14.1183C20.3486 13.7217 20.5026 13.2776 20.6348 12.8908L20.6875 12.84C21.4754 12.0778 21.7869 11.4343 22.4609 10.5793C23.8082 8.87017 25.2978 7.11044 26.6172 5.39471C27.385 4.38707 28.1594 3.38431 28.9404 2.38689C29.5112 1.65271 30.12 0.801856 30.8057 0.191582L30.8984 0.0783012ZM31.4648 3.83025C29.128 6.6548 26.9062 9.76998 24.583 12.6301L31.5566 12.6096L38.4443 12.6262C36.7548 10.6771 35.1564 8.31308 33.4893 6.31951C33.1343 5.89491 31.8546 4.09175 31.4648 3.83025Z" fill="currentColor"/>
</svg>
