<svg width="59" height="59" viewBox="0 0 59 59" fill="none" xmlns="http://www.w3.org/2000/svg">
<path d="M56 9.5C56 5.91015 53.0899 3 49.5 3H38V18.5C38 19.0347 37.7154 19.5295 37.2529 19.7979C36.7906 20.0661 36.22 20.0679 35.7559 19.8027L29.5 16.2275L23.2441 19.8027C22.78 20.0679 22.2094 20.0661 21.7471 19.7979C21.2846 19.5295 21 19.0347 21 18.5V3H9.5C5.91015 3 3 5.91015 3 9.5V49.5C3 53.0899 5.91015 56 9.5 56H49.5C53.0899 56 56 53.0899 56 49.5V9.5ZM31 44.5C31.8284 44.5 32.5 45.1716 32.5 46C32.5 46.8284 31.8284 47.5 31 47.5H14C13.1716 47.5 12.5 46.8284 12.5 46C12.5 45.1716 13.1716 44.5 14 44.5H31ZM19 32.5C19.8284 32.5 20.5 33.1716 20.5 34C20.5 34.8284 19.8284 35.5 19 35.5H14C13.1716 35.5 12.5 34.8284 12.5 34C12.5 33.1716 13.1716 32.5 14 32.5H19ZM24 15.9141L28.7559 13.1973L28.9336 13.1113C29.3571 12.9385 29.8408 12.9668 30.2441 13.1973L35 15.9141V3H24V15.9141ZM59 49.5C59 54.7467 54.7467 59 49.5 59H9.5C4.25329 59 0 54.7467 0 49.5V9.5C0 4.25329 4.25329 0 9.5 0H49.5C54.7467 0 59 4.25329 59 9.5V49.5Z" fill="currentColor"/>
</svg>
