<svg width="70" height="74" viewBox="0 0 70 74" fill="none" xmlns="http://www.w3.org/2000/svg">
<path d="M65.9722 21.7436C66.7499 21.4591 67.6112 21.8584 67.896 22.6361C69.766 27.7421 70.4031 33.2178 69.7544 38.6166C69.1056 44.0154 67.1899 49.185 64.1636 53.7026C61.1372 58.2201 57.0852 61.9587 52.3393 64.6127C48.3165 66.8623 43.8899 68.2743 39.3257 68.7836L41.5532 70.3305C42.2332 70.8029 42.4012 71.738 41.9292 72.4184C41.4568 73.0986 40.5217 73.2675 39.8413 72.7953L34.895 69.3617C34.5537 69.1246 34.3258 68.7564 34.2661 68.3451C34.2065 67.9336 34.3213 67.5152 34.5815 67.1908L38.6968 62.0619C39.2153 61.4161 40.1601 61.3131 40.8061 61.8315C41.4517 62.35 41.5548 63.294 41.0366 63.9399L39.5981 65.7318C43.5513 65.2131 47.3795 63.9489 50.8745 61.9945C55.2077 59.5713 58.9071 56.1573 61.6704 52.0326C64.4335 47.908 66.1825 43.1884 66.7749 38.2592C67.3672 33.3298 66.786 28.3294 65.0786 23.6674C64.7941 22.8896 65.1944 22.0284 65.9722 21.7436Z" fill="currentColor"/>
<path d="M6.30712 16.5766C6.68312 16.3995 7.11636 16.3865 7.50243 16.5404C7.88864 16.6946 8.1944 17.0025 8.3452 17.3901L10.729 23.5199C11.0288 24.2918 10.6462 25.1611 9.8745 25.4613C9.10252 25.7613 8.23335 25.3778 7.93309 24.6059L6.76415 21.601C5.00556 25.5186 4.06252 29.7612 4.00341 34.0688C3.93537 39.033 5.04244 43.9435 7.2329 48.3988C9.42344 52.8542 12.6361 56.7288 16.6089 59.7065C20.5817 62.6841 25.2021 64.6803 30.0933 65.5326C30.9093 65.6749 31.4552 66.4529 31.313 67.269C31.1704 68.0847 30.3935 68.6309 29.5776 68.4887C24.2208 67.5551 19.1601 65.369 14.8091 62.1078C10.458 58.8466 6.9387 54.6028 4.53954 49.7231C2.1404 44.8433 0.92887 39.4649 1.00341 34.0277C1.06436 29.5833 1.98407 25.2016 3.70067 21.1215L2.14013 21.8578C1.39084 22.2108 0.4962 21.8893 0.143055 21.1401C-0.209762 20.3908 0.112616 19.4961 0.861805 19.143L6.30712 16.5766Z" fill="currentColor"/>
<path fill-rule="evenodd" clip-rule="evenodd" d="M35.5005 25.0004C40.7469 25.0005 45.0003 29.2539 45.0005 34.5004C45.0005 39.747 40.7471 44.0003 35.5005 44.0004C30.2538 44.0004 26.0005 39.7471 26.0005 34.5004C26.0007 29.2539 30.2539 25.0004 35.5005 25.0004ZM35.5005 28.0004C31.9107 28.0004 29.0007 30.9107 29.0005 34.5004C29.0005 38.0903 31.9106 41.0004 35.5005 41.0004C39.0902 41.0003 42.0005 38.0902 42.0005 34.5004C42.0003 30.9108 39.0901 28.0005 35.5005 28.0004Z" fill="currentColor"/>
<path fill-rule="evenodd" clip-rule="evenodd" d="M38.5005 10.0004C39.881 10.0005 41.0003 11.1199 41.0005 12.5004V15.269C42.7695 15.7739 44.4378 16.5159 45.9692 17.4584L48.021 15.4086L48.2104 15.2367C49.127 14.4894 50.4512 14.4892 51.3677 15.2367L51.5571 15.4086L55.0923 18.9438C56.0075 19.859 56.0648 21.3084 55.2641 22.2904L55.0923 22.4799L52.9126 24.6586C53.7638 26.162 54.4256 27.7867 54.8667 29.5004H58.0005C59.381 29.5005 60.5003 30.6199 60.5005 32.0004V37.0004C60.5005 38.381 59.3811 39.5003 58.0005 39.5004H54.8667C54.4256 41.2138 53.7636 42.8382 52.9126 44.3412L55.0923 46.5209C56.0685 47.4971 56.0683 49.0807 55.0923 50.057L51.5571 53.5922C50.5808 54.5685 48.9973 54.5685 48.021 53.5922L45.9692 51.5404C44.4377 52.483 42.7695 53.2249 41.0005 53.7299V56.5004C41.0005 57.881 39.8811 59.0003 38.5005 59.0004H33.5005C32.1198 59.0004 31.0005 57.8811 31.0005 56.5004V53.9867C29.1026 53.5504 27.3077 52.8461 25.6587 51.9125L23.98 53.5922C23.0037 54.5685 21.4201 54.5685 20.4438 53.5922L16.9087 50.057C15.9324 49.0807 15.9324 47.4972 16.9087 46.5209L18.4585 44.9692C17.4277 43.2941 16.6374 41.4553 16.1343 39.5004H14.0005C12.6198 39.5004 11.5005 38.3811 11.5005 37.0004V32.0004C11.5007 30.6199 12.6199 29.5004 14.0005 29.5004H16.1343C16.6375 27.5451 17.4274 25.7052 18.4585 24.0297L16.9087 22.4799C15.9324 21.5036 15.9324 19.9201 16.9087 18.9438L20.4438 15.4086L20.6333 15.2367C21.5499 14.4894 22.874 14.4892 23.7905 15.2367L23.98 15.4086L25.6577 17.0863C27.3067 16.1528 29.1025 15.4484 31.0005 15.0121V12.5004C31.0007 11.1199 32.1199 10.0004 33.5005 10.0004H38.5005ZM34.0005 17.519L32.7417 17.724C30.3774 18.1096 28.1765 18.982 26.2466 20.2367L25.228 20.8988L22.2114 17.8822L19.3823 20.7113L22.3384 23.6664L21.6079 24.6996C20.2399 26.6349 19.2685 28.8685 18.8061 31.2826L18.5727 32.5004H14.5005V36.5004H18.5727L18.8061 37.7182C19.2684 40.132 20.24 42.3649 21.6079 44.3002L22.3374 45.3324L19.3823 48.2885L22.2114 51.1176L25.228 48.101L26.2466 48.7631C28.1766 50.0181 30.3771 50.8901 32.7417 51.2758L34.0005 51.4809V56.0004H38.0005V51.3598L39.1772 51.1C41.415 50.6067 43.4882 49.6729 45.3003 48.392L46.3335 47.6615L49.7886 51.1176L52.6177 48.2885L49.1011 44.7719L49.7632 43.7533C50.9365 41.9486 51.7755 39.9077 52.1948 37.7182L52.4282 36.5004H57.5005V32.5004H52.4282L52.1948 31.2826C51.7754 29.0926 50.9367 27.0512 49.7632 25.2465L49.1011 24.2279L52.6177 20.7113L49.7886 17.8822L46.3325 21.3373L45.3003 20.6078C43.4881 19.327 41.4149 18.3931 39.1772 17.8998L38.0005 17.6401V13.0004H34.0005V17.519Z" fill="currentColor"/>
<path d="M21.937 2.77775C26.9368 0.640188 32.3718 -0.285536 37.7974 0.0765763C43.2228 0.438736 48.4863 2.07871 53.1577 4.86173C56.9037 7.09352 60.1826 10.0121 62.8315 13.4516L63.0054 11.3754C63.0746 10.5502 63.8002 9.93651 64.6255 10.0053C65.4506 10.0743 66.0642 10.8002 65.9956 11.6254L65.4956 17.6254C65.461 18.0395 65.2554 18.4208 64.9292 18.6781C64.6026 18.9356 64.183 19.046 63.772 18.9828L57.272 17.9828C56.4534 17.8567 55.8921 17.0905 56.0181 16.2719C56.1444 15.4535 56.9105 14.8921 57.729 15.018L60.5903 15.4574C58.1487 12.2405 55.1065 9.51457 51.6225 7.43888C47.3574 4.89786 42.5508 3.40138 37.5972 3.07072C32.6435 2.74015 27.6817 3.58489 23.1167 5.53654C18.5516 7.48823 14.5123 10.4916 11.3286 14.3012C10.7973 14.9367 9.85095 15.0209 9.21532 14.4897C8.58037 13.9583 8.49584 13.0128 9.02684 12.3774C12.5137 8.20499 16.9372 4.91532 21.937 2.77775Z" fill="currentColor"/>
</svg>
