<svg preserveAspectRatio="none" width="100%" height="100%" overflow="visible" style="display: block;" viewBox="0 0 680.308 680.31" fill="none" xmlns="http://www.w3.org/2000/svg">
<g id="Group 1114">
<g id="Subtract">
<path d="M680.308 344.247C678.137 528.92 528.809 678.206 344.12 680.31V579.3C472.393 577.221 576.117 474.16 579.259 346.148L628.833 395.723L680.308 344.247Z" fill="var(--fill-0, #B4C7B0)"/>
<path d="M102.762 369.342C116.954 486.036 215.19 576.797 335.12 579.279V680.295C159.268 677.738 15.7228 541.743 1.20898 369.035L51.833 318.413L102.762 369.342Z" fill="var(--fill-0, #B4C7B0)"/>
<path d="M342.366 0.00689697C526.259 1.17129 675.53 148.253 680.219 331.29L628.833 382.677L579.229 333.072C575.476 204.266 469.882 101 340.167 101C334.634 101 329.145 101.189 323.706 101.559L375.355 49.9102L325.747 0.301819C330.529 0.102401 335.336 6.10352e-05 340.167 6.10352e-05L342.366 0.00689697Z" fill="var(--fill-0, #B4C7B0)"/>
<path d="M362.31 49.9102L309.236 102.982C191.76 118.152 101 218.56 101 340.167C101 345.144 101.153 350.085 101.452 354.986L51.833 305.367L0.400391 356.799C0.169993 352.013 0.0374534 347.202 0.00683594 342.366L0 340.167C0.00012563 161.295 138.062 14.6689 313.436 1.03619L362.31 49.9102Z" fill="var(--fill-0, #B4C7B0)"/>
</g>
<g id="recilo-logo-dark 1" clip-path="url(#clip0_0_4)">
<path id="eye" d="M472.581 328.715C456.498 295.291 414.253 299.773 401.487 328.468C401.109 329.348 401.159 330.156 401.598 331.065C408.006 344.79 421.905 354.08 437.025 353.909C452.226 354.146 466.388 344.479 472.573 330.652C472.828 330.089 472.834 329.269 472.581 328.715ZM414.262 331.549C414.481 335.283 415.551 338.739 417.328 342.16C412.929 339.023 409.047 334.49 406.684 329.69C409.13 324.673 412.975 320.348 417.427 317.064C415.053 321.412 413.769 326.574 414.262 331.549ZM449.768 339.589C446.799 342.288 442.952 343.796 438.967 344.119L438.934 349.554C434.552 347.349 430.496 343.417 429.298 338.591C430.74 333.839 434.369 330.017 438.928 328.054L438.98 333.046C443.516 331.171 447.216 327.187 448.62 322.452C447.312 317.671 443.347 313.745 438.988 311.575L438.947 316.913C434.312 317.311 429.546 319.293 426.544 322.797C426.544 322.799 426.542 322.799 426.542 322.799C426.215 323.173 425.908 323.558 425.618 323.959C425.618 323.959 425.618 323.961 425.616 323.961C424.984 324.837 424.439 325.785 423.994 326.768C421.331 332.567 422.333 339.628 425.663 345.073C425.662 345.074 425.663 345.073 425.663 345.074C422.568 342.536 420.373 338.949 419.33 335.091C415.701 322.139 427.206 308.196 440.54 309.645C454.837 311.299 460.593 330.248 449.768 339.589H449.768ZM467.369 329.677C464.381 335.203 460.301 340.228 454.92 343.57V343.568C454.92 343.568 454.923 343.568 454.923 343.566C461.321 336.259 461.006 325.557 456.801 317.304H456.802C461.212 320.349 464.874 325.011 467.369 329.677Z" fill="var(--fill-0, #16203F)"/>
<path id="l" d="M380.682 305.201V348.36H406.675V353.917H374.747V305.201H380.682Z" fill="var(--fill-0, #16203F)"/>
<path id="i" d="M357.031 353.917V305.201H362.966V353.917H357.031Z" fill="var(--fill-0, #16203F)"/>
<path id="c" d="M348.009 346.881C343.313 351.603 337.478 353.896 330.57 353.896C322.722 353.896 316.686 351.603 312.46 346.949C308.235 342.295 306.088 336.561 306.088 329.817C306.021 325.5 306.893 321.52 308.637 317.878C310.381 314.236 313.131 311.268 316.954 308.84C320.71 306.411 325.271 305.197 330.569 305.197C337.21 305.197 342.911 307.558 347.74 312.28L343.716 316.057C340.161 312.549 335.801 310.795 330.57 310.795C324.533 310.795 319.906 312.684 316.686 316.326C313.466 320.036 311.857 324.488 311.924 329.749C311.991 335.01 313.6 339.394 316.82 342.969C319.972 346.544 324.533 348.297 330.57 348.297C335.801 348.297 340.295 346.476 343.917 342.834L348.009 346.881Z" fill="var(--fill-0, #16203F)"/>
<path id="e" d="M264.689 353.917V305.201H298.255V310.768H270.556V326.009H297.095V331.646H270.556V348.14H299.346V353.916L264.689 353.917Z" fill="var(--fill-0, #16203F)"/>
<path id="r" d="M248.526 353.917L233.653 336.379H222.056V353.917H216.12V305.201H237.815C242.864 305.201 246.821 306.732 249.686 309.794C252.551 312.856 253.984 316.545 253.984 320.79C253.984 324.826 252.892 328.236 250.641 331.09C248.321 333.943 244.91 335.544 240.271 335.892L256.031 353.917H248.526ZM237.542 330.951C240.953 330.951 243.546 330.046 245.32 328.167C247.094 326.288 248.049 323.852 248.049 320.929C248.049 318.285 247.162 315.849 245.388 313.761C243.546 311.673 241.022 310.629 237.815 310.629H222.056V330.951L237.542 330.951Z" fill="var(--fill-0, #16203F)"/>
</g>
</g>
<defs>
<clipPath id="clip0_0_4">
<rect width="256.648" height="48.7195" fill="white" transform="translate(216.12 305.197)"/>
</clipPath>
</defs>
</svg>
